<svg xmlns="http://www.w3.org/2000/svg" viewBox="0 0 357.63 140.47"><defs><style>.cls-1{fill:#f26322;}.cls-2{fill:#2aaed7;}.cls-3{fill:#268a6e;}</style></defs><g id="Layer_2" data-name="Layer 2"><g id="Layer_1-2" data-name="Layer 1"><path class="cls-1" d="M340.71,90.64a15,15,0,0,1-15,15H265.4a15,15,0,1,1,0-29.94h60.34A15,15,0,0,1,340.71,90.64Z"/><path class="cls-2" d="M308.43,8.89l48,111a14.74,14.74,0,0,1-13.53,20.58h0a14.74,14.74,0,0,1-13.53-8.88l-48.05-111A14.74,14.74,0,0,1,294.83,0h.07A14.74,14.74,0,0,1,308.43,8.89Z"/><path class="cls-2" d="M97.35,8.88l-48,111a14.73,14.73,0,0,0,13.52,20.57h0a14.75,14.75,0,0,0,13.52-8.87l48.05-111A14.73,14.73,0,0,0,111,0h-.09A14.72,14.72,0,0,0,97.35,8.88Z"/><path class="cls-3" d="M28.35,8.89l48,111A14.73,14.73,0,0,1,62.8,140.47h0a14.75,14.75,0,0,1-13.53-8.88l-48-111A14.74,14.74,0,0,1,14.75,0h.07A14.73,14.73,0,0,1,28.35,8.89Z"/><path class="cls-3" d="M281.16,8.88l-48,111a14.72,14.72,0,0,0,13.52,20.57h0a14.75,14.75,0,0,0,13.52-8.87l48.05-111A14.73,14.73,0,0,0,294.77,0h-.09A14.74,14.74,0,0,0,281.16,8.88Z"/><path class="cls-2" d="M212.17,8.89l48,111a14.74,14.74,0,0,1-13.53,20.58h0a14.75,14.75,0,0,1-13.53-8.88l-48-111A14.74,14.74,0,0,1,198.57,0h.07A14.73,14.73,0,0,1,212.17,8.89Z"/><rect class="cls-3" x="142.75" width="29.51" height="140.47" rx="13.85"/></g></g></svg>