<svg width="24" height="24" viewBox="0 0 24 24" fill="none" xmlns="http://www.w3.org/2000/svg">
<rect width="24" height="24" rx="12" fill="url(#paint0_angular)"/>
<path d="M20 6.00731C19.3036 6.49857 18.5324 6.8743 17.7164 7.12004C17.2784 6.61641 16.6962 6.25945 16.0488 6.09744C15.4013 5.93543 14.7196 5.97618 14.0961 6.21419C13.4725 6.45219 12.937 6.87597 12.5622 7.4282C12.1873 7.98043 11.9911 8.63447 12 9.30186V10.0291C10.7219 10.0623 9.45547 9.77881 8.31346 9.204C7.17145 8.62919 6.18932 7.78087 5.45455 6.73459C5.45455 6.73459 2.54545 13.28 9.09091 16.1891C7.59311 17.2058 5.80884 17.7156 4 17.6437C10.5455 21.28 18.5455 17.6437 18.5455 9.28004C18.5448 9.07746 18.5253 8.87538 18.4873 8.6764C19.2295 7.9444 19.7533 7.0202 20 6.00731V6.00731Z" fill="white"/>
<defs>
<radialGradient id="paint0_angular" cx="0" cy="0" r="1" gradientUnits="userSpaceOnUse" gradientTransform="translate(12 12) rotate(90) scale(12)">
<stop offset="0.171875" stop-color="#278A6E"/>
<stop offset="1" stop-color="#2CAED7"/>
</radialGradient>
</defs>
</svg>
