<svg width="62" height="24" viewBox="0 0 62 24" fill="none" xmlns="http://www.w3.org/2000/svg">
<g clip-path="url(#clip0)">
<path d="M59.443 24C58.9446 23.9997 58.4571 23.856 58.0404 23.5865C57.6237 23.317 57.2959 22.9334 57.0974 22.4828L55.1488 18.0406H46.0108C45.3509 17.9994 44.7317 17.712 44.2791 17.2369C43.8266 16.7617 43.5747 16.1345 43.5747 15.4829C43.5747 14.8312 43.8266 14.204 44.2791 13.7289C44.7317 13.2538 45.3509 12.9664 46.0108 12.9252H52.902L48.769 3.51961C48.6006 3.1365 48.5314 2.71814 48.5678 2.30216C48.6042 1.88618 48.7449 1.48563 48.9774 1.13658C49.2098 0.787516 49.5267 0.500891 49.8995 0.302492C50.2722 0.104093 50.6892 0.000144105 51.1129 0L51.125 0C51.6237 0.000199442 52.1114 0.144089 52.5281 0.413959C52.9449 0.683828 53.2725 1.0679 53.4706 1.5189L61.7921 20.4838C61.9599 20.8672 62.0284 21.2856 61.9914 21.7015C61.9544 22.1175 61.8131 22.5178 61.5801 22.8665C61.3471 23.2152 61.0298 23.5014 60.6568 23.6992C60.2837 23.8971 59.8666 24.0005 59.443 24V24Z" fill="url(#paint0_linear)"/>
<path d="M11.4197 23.9471C11.2896 23.9749 11.1574 23.9915 11.0244 23.9966C11.1572 23.9898 11.2894 23.9732 11.4197 23.9471V23.9471Z" fill="url(#paint1_linear)"/>
<path d="M21.5784 3.5162L13.2569 22.4811C13.0941 22.852 12.8427 23.1786 12.5243 23.4333C12.2059 23.6879 11.8298 23.863 11.4279 23.9436C11.2976 23.9698 11.1655 23.9863 11.0327 23.9932H10.9131H10.8957H10.7726C10.7276 23.9932 10.6825 23.9932 10.6391 23.9829C10.5513 23.9742 10.4639 23.9611 10.3774 23.9436C10.2841 23.9244 10.1921 23.8998 10.1017 23.8701H10.0878C9.8779 23.8024 9.67795 23.7076 9.49321 23.5882C9.07698 23.3186 8.74978 22.935 8.55185 22.4845L0.213064 3.51961C0.0445788 3.13637 -0.0245446 2.71785 0.0119172 2.30173C0.0483791 1.88561 0.189281 1.48496 0.421937 1.13586C0.654592 0.786759 0.971695 0.500165 1.34469 0.301883C1.71769 0.103602 2.13487 -0.00013906 2.55867 1.39899e-07H2.56907C3.06774 0.000199582 3.55546 0.144089 3.97222 0.413959C4.38897 0.683828 4.71657 1.0679 4.91468 1.5189L10.8957 15.1548L16.8768 1.5189C17.0742 1.06777 17.4014 0.683515 17.8179 0.413586C18.2345 0.143656 18.7221 -0.000124416 19.2206 1.39899e-07H19.2432C19.6658 0.00137117 20.0815 0.106098 20.4529 0.30479C20.8244 0.503481 21.14 0.789923 21.3714 1.13843C21.6029 1.48693 21.743 1.88661 21.7791 2.3016C21.8152 2.71659 21.7462 3.13394 21.5784 3.5162V3.5162Z" fill="url(#paint2_linear)"/>
<path d="M10.3687 23.9471C10.4552 23.9646 10.5425 23.9777 10.6304 23.9864C10.5424 23.9792 10.4549 23.9661 10.3687 23.9471V23.9471Z" fill="url(#paint3_linear)"/>
<path d="M43.2871 23.9471C43.1571 23.9749 43.0248 23.9915 42.8918 23.9966C43.0247 23.9898 43.1568 23.9732 43.2871 23.9471V23.9471Z" fill="url(#paint4_linear)"/>
<path d="M53.4464 3.5162L45.1163 22.4811C44.9535 22.852 44.7021 23.1786 44.3837 23.4333C44.0653 23.6879 43.6892 23.863 43.2873 23.9436C43.157 23.9698 43.0249 23.9863 42.8921 23.9932H42.7725H42.7551H42.632C42.587 23.9932 42.5419 23.9932 42.4985 23.9829C42.4107 23.9742 42.3233 23.9611 42.2368 23.9436C42.1435 23.9244 42.0515 23.8998 41.9611 23.8701H41.9472C41.7373 23.8024 41.5374 23.7076 41.3526 23.5882C40.9359 23.3187 40.6081 22.9351 40.4095 22.4845L32.0881 3.51961C31.9198 3.1369 31.8506 2.719 31.8868 2.30343C31.9229 1.88786 32.0632 1.48764 32.295 1.13871C32.5269 0.789783 32.843 0.503068 33.2151 0.304314C33.5872 0.105561 34.0035 0.00099243 34.4267 8.08579e-08H34.4371C34.9358 0.000199523 35.4235 0.144089 35.8403 0.413959C36.257 0.683828 36.5846 1.0679 36.7827 1.5189L42.7638 15.1548L48.7448 1.5189C48.9423 1.06777 49.2695 0.683515 49.686 0.413586C50.1025 0.143656 50.5902 -0.000124475 51.0887 8.08579e-08H51.1043C51.5275 0.000241321 51.944 0.104143 52.3164 0.302363C52.6888 0.500582 53.0053 0.786903 53.2376 1.13558C53.4698 1.48426 53.6105 1.88436 53.647 2.2999C53.6834 2.71545 53.6145 3.1334 53.4464 3.5162V3.5162Z" fill="url(#paint5_linear)"/>
<path d="M42.2366 23.9471C42.3231 23.9646 42.4105 23.9777 42.4984 23.9864C42.4103 23.9792 42.3228 23.9661 42.2366 23.9471Z" fill="url(#paint6_linear)"/>
<path d="M27.4624 0H27.1486C25.8226 0 24.7476 1.05945 24.7476 2.36634V21.6337C24.7476 22.9406 25.8226 24 27.1486 24H27.4624C28.7885 24 29.8635 22.9406 29.8635 21.6337V2.36634C29.8635 1.05945 28.7885 0 27.4624 0Z" fill="url(#paint7_linear)"/>
</g>
<defs>
<linearGradient id="paint0_linear" x1="46.9816" y1="24.9448" x2="62.0642" y2="24.9448" gradientUnits="userSpaceOnUse">
<stop stop-color="#2BA4B9"/>
<stop offset="1" stop-color="#2CAED7"/>
</linearGradient>
<linearGradient id="paint1_linear" x1="3.28108" y1="29.4194" x2="19.3911" y2="74.9319" gradientUnits="userSpaceOnUse">
<stop stop-color="#268A6E"/>
<stop offset="1" stop-color="#2AAED7"/>
</linearGradient>
<linearGradient id="paint2_linear" x1="-0.000171956" y1="24.9448" x2="21.7338" y2="23.4" gradientUnits="userSpaceOnUse">
<stop stop-color="#278A6E"/>
<stop offset="1" stop-color="#299285"/>
</linearGradient>
<linearGradient id="paint3_linear" x1="5.12259" y1="28.3379" x2="19.7204" y2="62.7722" gradientUnits="userSpaceOnUse">
<stop stop-color="#268A6E"/>
<stop offset="1" stop-color="#2AAED7"/>
</linearGradient>
<linearGradient id="paint4_linear" x1="43.2476" y1="26.5532" x2="59.3552" y2="72.0637" gradientUnits="userSpaceOnUse">
<stop stop-color="#268A6E"/>
<stop offset="1" stop-color="#2AAED7"/>
</linearGradient>
<linearGradient id="paint5_linear" x1="31.8991" y1="24.9448" x2="53.6325" y2="23.3956" gradientUnits="userSpaceOnUse">
<stop stop-color="#2A9A9A"/>
<stop offset="1" stop-color="#2CA9C6"/>
</linearGradient>
<linearGradient id="paint6_linear" x1="42.3518" y1="26.0649" x2="56.9494" y2="60.4993" gradientUnits="userSpaceOnUse">
<stop stop-color="#268A6E"/>
<stop offset="1" stop-color="#2AAED7"/>
</linearGradient>
<linearGradient id="paint7_linear" x1="24.7909" y1="24.9448" x2="29.8184" y2="24.9448" gradientUnits="userSpaceOnUse">
<stop stop-color="#29948B"/>
<stop offset="1" stop-color="#299896"/>
</linearGradient>
<clipPath id="clip0">
<rect width="62" height="24" fill="white"/>
</clipPath>
</defs>
</svg>
